<svg width="48" height="48" viewBox="0 0 48 48" fill="none" xmlns="http://www.w3.org/2000/svg">
<path d="M17.9986 29.9978H13.499C12.6706 29.9978 11.9991 30.6693 11.9991 31.4977V40.497C11.9991 41.3254 12.6706 41.9969 13.499 41.9969H17.9986C18.827 41.9969 19.4985 41.3254 19.4985 40.497V31.4977C19.4985 30.6693 18.827 29.9978 17.9986 29.9978Z" fill="#2E8B6A"/>
<path d="M28.4978 20.9983H23.9982C23.1698 20.9983 22.4983 21.6698 22.4983 22.4982V40.4968C22.4983 41.3252 23.1698 41.9967 23.9982 41.9967H28.4978C29.3262 41.9967 29.9977 41.3252 29.9977 40.4968V22.4982C29.9977 21.6698 29.3262 20.9983 28.4978 20.9983Z" fill="#2E8B6A"/>
<path d="M38.997 11.999H34.4974C33.669 11.999 32.9975 12.6705 32.9975 13.4989V40.4968C32.9975 41.3252 33.669 41.9967 34.4974 41.9967H38.997C39.8254 41.9967 40.4969 41.3252 40.4969 40.4968V13.4989C40.4969 12.6705 39.8254 11.999 38.997 11.999Z" fill="#2E8B6A"/>
</svg>
