<svg width="48" height="48" viewBox="0 0 48 48" fill="none" xmlns="http://www.w3.org/2000/svg">
<path d="M23.9982 8.99927C17.9986 8.99927 13.499 13.4989 13.499 19.4985C13.499 22.4982 14.9988 25.498 16.4987 26.9979V32.9974C16.4987 34.4973 17.9986 35.9972 19.4985 35.9972H28.4978C29.9977 35.9972 31.4976 34.4973 31.4976 32.9974V26.9979C32.9975 25.498 34.4974 22.4982 34.4974 19.4985C34.4974 13.4989 29.9977 8.99927 23.9982 8.99927Z" stroke="#2E8B6A" stroke-width="2.99977" stroke-linecap="round" stroke-linejoin="round"/>
<path d="M20.9984 17.9986C20.9984 17.9986 22.4983 16.4988 23.9982 17.9986C25.4981 19.4985 26.998 17.9986 26.998 17.9986" stroke="#2E8B6A" stroke-width="2.99977" stroke-linecap="round" stroke-linejoin="round"/>
<path d="M19.4985 38.9971H28.4978" stroke="#2E8B6A" stroke-width="2.99977" stroke-linecap="round"/>
</svg>
