<svg width="48" height="48" viewBox="0 0 48 48" fill="none" xmlns="http://www.w3.org/2000/svg">
<path d="M23.9982 38.997C32.2818 38.997 38.997 32.2818 38.997 23.9981C38.997 15.7145 32.2818 8.99927 23.9982 8.99927C15.7145 8.99927 8.99933 15.7145 8.99933 23.9981C8.99933 32.2818 15.7145 38.997 23.9982 38.997Z" stroke="#2E8B6A" stroke-width="2.99977"/>
<path d="M23.9981 14.9988V32.9974M23.9981 14.9988C19.4985 14.9988 19.4985 17.9985 19.4985 17.9985M23.9981 14.9988C28.4978 14.9988 28.4978 17.9985 28.4978 19.4984C28.4978 20.9983 26.9979 22.4982 23.9981 22.4982C20.9984 22.4982 19.4985 23.9981 19.4985 25.498C19.4985 26.9979 19.4985 29.9976 23.9981 29.9976C28.4978 29.9976 28.4978 26.9979 28.4978 26.9979" stroke="#2E8B6A" stroke-width="2.99977" stroke-linecap="round" stroke-linejoin="round"/>
</svg>
