<svg width="48" height="48" viewBox="0 0 48 48" fill="none" xmlns="http://www.w3.org/2000/svg">
<path d="M32.9975 8.99927H14.9989C13.3421 8.99927 11.9991 10.3423 11.9991 11.999V35.9972C11.9991 37.6539 13.3421 38.997 14.9989 38.997H32.9975C34.6542 38.997 35.9972 37.6539 35.9972 35.9972V11.999C35.9972 10.3423 34.6542 8.99927 32.9975 8.99927Z" stroke="#2E8B6A" stroke-width="2.99977"/>
<path d="M28.4978 5.99951H19.4985C18.6701 5.99951 17.9986 6.67103 17.9986 7.4994V10.4992C17.9986 11.3275 18.6701 11.9991 19.4985 11.9991H28.4978C29.3262 11.9991 29.9977 11.3275 29.9977 10.4992V7.4994C29.9977 6.67103 29.3262 5.99951 28.4978 5.99951Z" stroke="#2E8B6A" stroke-width="2.99977"/>
<path opacity="0.5" d="M23.9982 24.7482C24.4124 24.7482 24.7481 24.4124 24.7481 23.9982C24.7481 23.5841 24.4124 23.2483 23.9982 23.2483C23.584 23.2483 23.2482 23.5841 23.2482 23.9982C23.2482 24.4124 23.584 24.7482 23.9982 24.7482Z" fill="#2E8B6A"/>
<path opacity="0.5" d="M19.4985 24.7482C19.9127 24.7482 20.2485 24.4124 20.2485 23.9982C20.2485 23.5841 19.9127 23.2483 19.4985 23.2483C19.0843 23.2483 18.7486 23.5841 18.7486 23.9982C18.7486 24.4124 19.0843 24.7482 19.4985 24.7482Z" fill="#2E8B6A"/>
<path opacity="0.5" d="M28.4978 24.7482C28.912 24.7482 29.2477 24.4124 29.2477 23.9982C29.2477 23.5841 28.912 23.2483 28.4978 23.2483C28.0836 23.2483 27.7479 23.5841 27.7479 23.9982C27.7479 24.4124 28.0836 24.7482 28.4978 24.7482Z" fill="#2E8B6A"/>
</svg>
