<svg width="48" height="48" viewBox="0 0 48 48" fill="none" xmlns="http://www.w3.org/2000/svg">
<path d="M14.9989 13.499H11.9991C11.1707 13.499 10.4992 14.1705 10.4992 14.9989V17.9987C10.4992 18.827 11.1707 19.4986 11.9991 19.4986H14.9989C15.8272 19.4986 16.4987 18.827 16.4987 17.9987V14.9989C16.4987 14.1705 15.8272 13.499 14.9989 13.499Z" stroke="#2E8B6A" stroke-width="2.99977"/>
<path d="M20.9984 16.4988H35.9973" stroke="#2E8B6A" stroke-width="2.99977" stroke-linecap="round"/>
<path d="M14.9989 25.498H11.9991C11.1707 25.498 10.4992 26.1696 10.4992 26.9979V29.9977C10.4992 30.8261 11.1707 31.4976 11.9991 31.4976H14.9989C15.8272 31.4976 16.4987 30.8261 16.4987 29.9977V26.9979C16.4987 26.1696 15.8272 25.498 14.9989 25.498Z" stroke="#2E8B6A" stroke-width="2.99977"/>
<path opacity="0.5" d="M20.9984 28.4978H35.9973" stroke="#2E8B6A" stroke-width="2.99977" stroke-linecap="round"/>
<path opacity="0.3" d="M14.9989 37.4971H11.9991C11.1707 37.4971 10.4992 38.1686 10.4992 38.997V41.9967C10.4992 42.8251 11.1707 43.4966 11.9991 43.4966H14.9989C15.8272 43.4966 16.4987 42.8251 16.4987 41.9967V38.997C16.4987 38.1686 15.8272 37.4971 14.9989 37.4971Z" stroke="#2E8B6A" stroke-width="2.99977"/>
<path opacity="0.3" d="M20.9984 40.4968H35.9973" stroke="#2E8B6A" stroke-width="2.99977" stroke-linecap="round"/>
</svg>
