<svg width="48" height="48" viewBox="0 0 48 48" fill="none" xmlns="http://www.w3.org/2000/svg">
<path d="M35.9973 17.9985H11.9991C11.1707 17.9985 10.4992 18.6701 10.4992 19.4984V28.4977C10.4992 29.3261 11.1707 29.9976 11.9991 29.9976H35.9973C36.8256 29.9976 37.4971 29.3261 37.4971 28.4977V19.4984C37.4971 18.6701 36.8256 17.9985 35.9973 17.9985Z" stroke="#2E8B6A" stroke-width="2.99977"/>
<path d="M39.747 20.9983H38.2471C37.8329 20.9983 37.4971 21.3341 37.4971 21.7482V26.2479C37.4971 26.6621 37.8329 26.9978 38.2471 26.9978H39.747C40.1611 26.9978 40.4969 26.6621 40.4969 26.2479V21.7482C40.4969 21.3341 40.1611 20.9983 39.747 20.9983Z" fill="#2E8B6A"/>
<path d="M17.2487 20.9983H14.2489C13.8347 20.9983 13.499 21.3341 13.499 21.7482V26.2479C13.499 26.6621 13.8347 26.9978 14.2489 26.9978H17.2487C17.6629 26.9978 17.9986 26.6621 17.9986 26.2479V21.7482C17.9986 21.3341 17.6629 20.9983 17.2487 20.9983Z" fill="#2E8B6A"/>
<path d="M23.2482 20.9983H20.2485C19.8343 20.9983 19.4985 21.3341 19.4985 21.7482V26.2479C19.4985 26.6621 19.8343 26.9978 20.2485 26.9978H23.2482C23.6624 26.9978 23.9982 26.6621 23.9982 26.2479V21.7482C23.9982 21.3341 23.6624 20.9983 23.2482 20.9983Z" fill="#2E8B6A"/>
</svg>
