<svg width="48" height="48" viewBox="0 0 48 48" fill="none" xmlns="http://www.w3.org/2000/svg">
<path d="M14.9988 17.9986C16.6555 17.9986 17.9986 16.6555 17.9986 14.9988C17.9986 13.3421 16.6555 11.999 14.9988 11.999C13.3421 11.999 11.999 13.3421 11.999 14.9988C11.999 16.6555 13.3421 17.9986 14.9988 17.9986Z" fill="#2E8B6A"/>
<path d="M32.9975 17.9986C34.6542 17.9986 35.9972 16.6555 35.9972 14.9988C35.9972 13.3421 34.6542 11.999 32.9975 11.999C31.3407 11.999 29.9977 13.3421 29.9977 14.9988C29.9977 16.6555 31.3407 17.9986 32.9975 17.9986Z" fill="#2E8B6A"/>
<path d="M14.9988 35.9973C16.6555 35.9973 17.9986 34.6543 17.9986 32.9976C17.9986 31.3408 16.6555 29.9978 14.9988 29.9978C13.3421 29.9978 11.999 31.3408 11.999 32.9976C11.999 34.6543 13.3421 35.9973 14.9988 35.9973Z" fill="#2E8B6A"/>
<path d="M32.9975 35.9973C34.6542 35.9973 35.9972 34.6543 35.9972 32.9976C35.9972 31.3408 34.6542 29.9978 32.9975 29.9978C31.3407 29.9978 29.9977 31.3408 29.9977 32.9976C29.9977 34.6543 31.3407 35.9973 32.9975 35.9973Z" fill="#2E8B6A"/>
<path d="M23.9982 26.9978C25.6549 26.9978 26.998 25.6548 26.998 23.9981C26.998 22.3413 25.6549 20.9983 23.9982 20.9983C22.3415 20.9983 20.9984 22.3413 20.9984 23.9981C20.9984 25.6548 22.3415 26.9978 23.9982 26.9978Z" fill="#2E8B6A"/>
</svg>
