<svg width="48" height="48" viewBox="0 0 48 48" fill="none" xmlns="http://www.w3.org/2000/svg">
<path d="M23.9982 38.997C32.2818 38.997 38.997 32.2818 38.997 23.9981C38.997 15.7145 32.2818 8.99927 23.9982 8.99927C15.7145 8.99927 8.99933 15.7145 8.99933 23.9981C8.99933 32.2818 15.7145 38.997 23.9982 38.997Z" stroke="#2E8B6A" stroke-width="2.99977"/>
<path d="M20.2484 16.4988H19.4985C18.6701 16.4988 17.9986 17.1703 17.9986 17.9987V29.9977C17.9986 30.8261 18.6701 31.4976 19.4985 31.4976H20.2484C21.0768 31.4976 21.7483 30.8261 21.7483 29.9977V17.9987C21.7483 17.1703 21.0768 16.4988 20.2484 16.4988Z" fill="#2E8B6A"/>
<path d="M28.4978 16.4988H27.7479C26.9195 16.4988 26.248 17.1703 26.248 17.9987V29.9977C26.248 30.8261 26.9195 31.4976 27.7479 31.4976H28.4978C29.3262 31.4976 29.9977 30.8261 29.9977 29.9977V17.9987C29.9977 17.1703 29.3262 16.4988 28.4978 16.4988Z" fill="#2E8B6A"/>
</svg>
