<svg width="48" height="48" viewBox="0 0 48 48" fill="none" xmlns="http://www.w3.org/2000/svg">
<path d="M8.99933 29.9977V35.9973H38.997V29.9977L32.9975 20.9984L28.4978 26.998L23.9982 16.4988L19.4985 26.998L14.9989 20.9984L8.99933 29.9977Z" stroke="#2E8B6A" stroke-width="2.99977" stroke-linecap="round" stroke-linejoin="round"/>
<path d="M14.9989 23.2482C16.2414 23.2482 17.2487 22.2409 17.2487 20.9984C17.2487 19.7558 16.2414 18.7485 14.9989 18.7485C13.7563 18.7485 12.749 19.7558 12.749 20.9984C12.749 22.2409 13.7563 23.2482 14.9989 23.2482Z" fill="#2E8B6A"/>
<path d="M23.9982 18.7487C25.2407 18.7487 26.248 17.7414 26.248 16.4989C26.248 15.2563 25.2407 14.249 23.9982 14.249C22.7556 14.249 21.7484 15.2563 21.7484 16.4989C21.7484 17.7414 22.7556 18.7487 23.9982 18.7487Z" fill="#2E8B6A"/>
<path d="M32.9974 23.2482C34.24 23.2482 35.2473 22.2409 35.2473 20.9984C35.2473 19.7558 34.24 18.7485 32.9974 18.7485C31.7549 18.7485 30.7476 19.7558 30.7476 20.9984C30.7476 22.2409 31.7549 23.2482 32.9974 23.2482Z" fill="#2E8B6A"/>
</svg>
