<svg width="48" height="48" viewBox="0 0 48 48" fill="none" xmlns="http://www.w3.org/2000/svg">
<path d="M35.9972 11.999H11.9991C10.3424 11.999 8.99931 13.3421 8.99931 14.9988V35.9972C8.99931 37.6539 10.3424 38.997 11.9991 38.997H35.9972C37.654 38.997 38.997 37.6539 38.997 35.9972V14.9988C38.997 13.3421 37.654 11.999 35.9972 11.999Z" stroke="#2E8B6A" stroke-width="2.99977"/>
<path d="M8.99931 19.4985H38.997" stroke="#2E8B6A" stroke-width="2.99977" stroke-linecap="round"/>
<path d="M16.4987 8.99927V14.9988M31.4976 8.99927V14.9988" stroke="#2E8B6A" stroke-width="2.99977" stroke-linecap="round"/>
<path d="M26.248 25.498H21.7483C20.92 25.498 20.2484 26.1696 20.2484 26.9979V31.4976C20.2484 32.326 20.92 32.9975 21.7483 32.9975H26.248C27.0763 32.9975 27.7479 32.326 27.7479 31.4976V26.9979C27.7479 26.1696 27.0763 25.498 26.248 25.498Z" fill="#2E8B6A"/>
</svg>
