<svg width="100" height="100" viewBox="0 0 100 100" fill="none" xmlns="http://www.w3.org/2000/svg">
<mask id="path-1-inside-1_19_990" fill="white">
<path d="M0 50C0 22.3858 22.3858 0 50 0V0C77.6142 0 100 22.3858 100 50V50C100 77.6142 77.6142 100 50 100V100C22.3858 100 0 77.6142 0 50V50Z"/>
</mask>
<path d="M0 50C0 22.3858 22.3858 0 50 0V0C77.6142 0 100 22.3858 100 50V50C100 77.6142 77.6142 100 50 100V100C22.3858 100 0 77.6142 0 50V50Z" fill="white"/>
<path d="M0 50M100 50M100 50M0 50M50 0M100 50M50 100M0 50M50 100V98.8235C23.0355 98.8235 1.17647 76.9645 1.17647 50H0H-1.17647C-1.17647 78.264 21.736 101.176 50 101.176V100ZM100 50H98.8235C98.8235 76.9645 76.9645 98.8235 50 98.8235V100V101.176C78.264 101.176 101.176 78.264 101.176 50H100ZM50 0V1.17647C76.9645 1.17647 98.8235 23.0355 98.8235 50H100H101.176C101.176 21.736 78.264 -1.17647 50 -1.17647V0ZM50 0V-1.17647C21.736 -1.17647 -1.17647 21.736 -1.17647 50H0H1.17647C1.17647 23.0355 23.0355 1.17647 50 1.17647V0Z" fill="#2E8B6A" mask="url(#path-1-inside-1_19_990)"/>
<path d="M38.2823 54.8823L50 69.5294M50 69.5294L61.7176 54.8823M50 69.5294V30.4706" stroke="#2E8B6A" stroke-width="1.95294" stroke-linecap="round" stroke-linejoin="round"/>
<g opacity="0.75">
<path d="M42.1882 51.9529L50 61.7176M50 61.7176L57.8118 51.9529M50 61.7176V38.2823" stroke="#2E8B6A" stroke-width="1.95294" stroke-linecap="round" stroke-linejoin="round"/>
</g>
<g opacity="0.5">
<path d="M45.1176 50L50 54.8824M50 54.8824L54.8824 50M50 54.8824V45.1177" stroke="#2E8B6A" stroke-width="1.95294" stroke-linecap="round" stroke-linejoin="round"/>
</g>
</svg>
