<svg width="100" height="100" viewBox="0 0 100 100" fill="none" xmlns="http://www.w3.org/2000/svg">
<mask id="path-1-inside-1_6_119" fill="white">
<path d="M0 50C0 22.3858 22.3858 0 50 0V0C77.6142 0 100 22.3858 100 50V50C100 77.6142 77.6142 100 50 100V100C22.3858 100 0 77.6142 0 50V50Z"/>
</mask>
<path d="M0 50C0 22.3858 22.3858 0 50 0V0C77.6142 0 100 22.3858 100 50V50C100 77.6142 77.6142 100 50 100V100C22.3858 100 0 77.6142 0 50V50Z" fill="white"/>
<path d="M0 50M100 50M100 50M0 50M50 0M100 50M50 100M0 50M50 100V98.2353C23.3604 98.2353 1.76471 76.6396 1.76471 50H0H-1.76471C-1.76471 78.5889 21.4111 101.765 50 101.765V100ZM100 50H98.2353C98.2353 76.6396 76.6396 98.2353 50 98.2353V100V101.765C78.5889 101.765 101.765 78.5889 101.765 50H100ZM50 0V1.76471C76.6396 1.76471 98.2353 23.3604 98.2353 50H100H101.765C101.765 21.4111 78.5889 -1.76471 50 -1.76471V0ZM50 0V-1.76471C21.4111 -1.76471 -1.76471 21.4111 -1.76471 50H0H1.76471C1.76471 23.3604 23.3604 1.76471 50 1.76471V0Z" fill="#2E8B6A" mask="url(#path-1-inside-1_6_119)"/>
<path d="M38.4235 54.8235L50 69.2941M50 69.2941L61.5765 54.8235M50 69.2941V30.7059" stroke="#2E8B6A" stroke-width="1.92941" stroke-linecap="round" stroke-linejoin="round"/>
<g opacity="0.75">
<path d="M42.2823 51.9294L50 61.5765M50 61.5765L57.7176 51.9294M50 61.5765V38.4235" stroke="#2E8B6A" stroke-width="1.92941" stroke-linecap="round" stroke-linejoin="round"/>
</g>
<g opacity="0.5">
<path d="M45.1765 50L50 54.8235M50 54.8235L54.8235 50M50 54.8235V45.1765" stroke="#2E8B6A" stroke-width="1.92941" stroke-linecap="round" stroke-linejoin="round"/>
</g>
</svg>
